<svg width="50" height="50" viewBox="0 0 50 50" fill="none" xmlns="http://www.w3.org/2000/svg">
<g clip-path="url(#clip0_9001_1216)">
<path d="M46.2857 17.9464C46.1071 17.5536 45.8571 17.375 45.6071 17.4464C43.8141 18.1434 41.9692 18.6986 40.0893 19.1071L38.6607 19.3929C32.6403 20.7099 26.3521 19.9679 20.8036 17.2857C17.7818 15.4459 14.1554 14.8746 10.7143 15.6964C10.2274 15.8307 9.75009 15.9977 9.28572 16.1964C7.45399 17.0219 5.85341 18.2852 4.62501 19.875C4.23389 20.4187 3.93245 21.0216 3.73215 21.6607L3.57143 22.0893C3.12501 23.5714 2.71429 27.4464 3.73215 25.875C3.83598 25.7103 3.92559 25.5371 4.00001 25.3571C5.30241 23.3484 7.16485 21.7654 9.35715 20.8036C9.8211 20.5989 10.2984 20.4259 10.7857 20.2857C14.2372 19.4736 17.8698 20.0576 20.8929 21.9107C26.4434 24.5869 32.7316 25.3226 38.75 24L40.1786 23.7143C42.0703 23.3064 43.9271 22.7512 45.7321 22.0536L46.0714 21.9107C47.5 21.0714 46.7857 19 46.2857 17.9464Z" fill="#E95297"/>
<path d="M46.2857 39.0893C46.1071 38.6964 45.8571 38.5179 45.6071 38.6071C43.8141 39.3041 41.9692 39.8593 40.0893 40.2679L38.6607 40.5536C32.6403 41.8706 26.3521 41.1286 20.8036 38.4464C17.7843 36.6005 14.1577 36.0228 10.7143 36.8393C10.2274 36.9735 9.75009 37.1406 9.28572 37.3393C7.4481 38.1799 5.84697 39.462 4.62501 41.0714C4.23769 41.6174 3.93656 42.2197 3.73215 42.8571C3.73215 43 3.67858 43.1607 3.57143 43.3393C3.12501 44.8214 2.71429 48.6964 3.73215 47.125C3.83252 46.9645 3.922 46.7975 4.00001 46.625C5.29816 44.6083 7.16134 43.0184 9.35715 42.0536C9.79516 41.8153 10.2485 41.6066 10.7143 41.4286C14.1658 40.6164 17.7984 41.2005 20.8214 43.0536C26.372 45.7297 32.6602 46.4654 38.6786 45.1429L40.1071 44.8571C41.9988 44.4493 43.8557 43.894 45.6607 43.1964L46 43.0536C47.5 42.2321 46.7857 40.1429 46.2857 39.0893Z" fill="#E95297"/>
<path d="M46.2857 28.4286C46.1071 28.0357 45.8571 27.8571 45.6071 27.9286C43.8127 28.6168 41.968 29.166 40.0893 29.5714L38.6607 29.8571C32.6423 31.1797 26.3541 30.444 20.8036 27.7679C17.7829 25.9256 14.1579 25.3482 10.7143 26.1607C10.227 26.3009 9.74967 26.4739 9.28572 26.6786C7.45399 27.504 5.85341 28.7673 4.62501 30.3571C4.232 30.8997 3.9304 31.5029 3.73215 32.1429L3.57143 32.5536C3.12501 34.0536 2.71429 37.9107 3.73215 36.3393C3.83998 36.1832 3.92984 36.0155 4.00001 35.8393C5.29679 33.8256 7.16089 32.2412 9.35715 31.2857C9.8211 31.081 10.2984 30.908 10.7857 30.7679C14.2372 29.9557 17.8698 30.5398 20.8929 32.3929C26.4458 35.061 32.7312 35.7964 38.75 34.4821L40.1786 34.1964C42.0738 33.7944 43.9316 33.2329 45.7321 32.5179L46.0714 32.3929C47.5 31.5536 46.7857 29.4821 46.2857 28.4286Z" fill="#E95297"/>
<path d="M20.625 13.3929C20.5485 13.1016 20.5125 12.8011 20.5179 12.5C20.5084 12.3335 20.5084 12.1665 20.5179 12C20.5093 12.1487 20.5093 12.2977 20.5179 12.4464C20.5226 12.7646 20.5585 13.0816 20.625 13.3929Z" fill="#E95297"/>
<path d="M29.5714 7.25C28.508 7.4167 27.4918 7.80615 26.5893 8.39286C27.26 8.67813 27.8507 9.12328 28.3097 9.68944C28.7687 10.2556 29.0822 10.9255 29.2226 11.6407C29.3631 12.3559 29.3263 13.0947 29.1154 13.7924C28.9046 14.4901 28.5262 15.1256 28.0131 15.6433C27.5001 16.161 26.8681 16.5453 26.1724 16.7625C25.4766 16.9797 24.7382 17.0232 24.0218 16.8893C23.3053 16.7554 22.6326 16.4481 22.0622 15.9942C21.4919 15.5404 21.0414 14.9538 20.75 14.2857C20.6886 14.1459 20.635 14.0028 20.5893 13.8571L20.4821 13.4286C20.425 13.1343 20.3951 12.8354 20.3928 12.5357C20.3843 12.387 20.3843 12.238 20.3928 12.0893V11.7857C20.5605 10.7278 21.1044 9.76586 21.9246 9.0769C22.7448 8.38794 23.7861 8.01821 24.8571 8.03571H25.4821C26.547 7.048 27.8972 6.42287 29.3393 6.25C29.3571 6.41071 29.6786 7.14286 29.5714 7.25Z" fill="#E95297"/>
</g>
<defs>
<clipPath id="clip0_9001_1216">
<rect width="50" height="50" fill="white"/>
</clipPath>
</defs>
</svg>
