<svg width="26" height="26" viewBox="0 0 26 26" fill="none" xmlns="http://www.w3.org/2000/svg">
<g clip-path="url(#clip0_7656_1711)">
<path d="M13 26C20.1797 26 26 20.1797 26 13C26 5.8203 20.1797 0 13 0C5.8203 0 0 5.8203 0 13C0 20.1797 5.8203 26 13 26Z" fill="#E95297"/>
<path d="M16.58 8.64999C16.3845 8.67195 16.204 8.76516 16.0729 8.91181C15.9418 9.05847 15.8693 9.24828 15.8693 9.44499C15.8693 9.6417 15.9418 9.83151 16.0729 9.97817C16.204 10.1248 16.3845 10.218 16.58 10.24C16.6919 10.2526 16.8052 10.2414 16.9125 10.2071C17.0197 10.1729 17.1186 10.1165 17.2025 10.0414C17.2864 9.96637 17.3536 9.87446 17.3996 9.77168C17.4456 9.66891 17.4693 9.55758 17.4693 9.44499C17.4693 9.3324 17.4456 9.22107 17.3996 9.1183C17.3536 9.01552 17.2864 8.92361 17.2025 8.84857C17.1186 8.77353 17.0197 8.71705 16.9125 8.68283C16.8052 8.64861 16.6919 8.63742 16.58 8.64999Z" fill="white"/>
<path d="M13.06 9.67001C12.4014 9.67001 11.7575 9.86531 11.2099 10.2312C10.6623 10.5971 10.2355 11.1172 9.98346 11.7257C9.73142 12.3342 9.66548 13.0037 9.79397 13.6497C9.92246 14.2956 10.2396 14.889 10.7053 15.3547C11.171 15.8204 11.7644 16.1375 12.4103 16.266C13.0563 16.3945 13.7258 16.3286 14.3343 16.0765C14.9428 15.8245 15.4629 15.3977 15.8288 14.8501C16.1947 14.3024 16.39 13.6586 16.39 13C16.3873 12.1177 16.0357 11.2722 15.4117 10.6483C14.7878 10.0243 13.9423 9.67265 13.06 9.67001ZM13.06 15.13C12.6387 15.13 12.2269 15.0051 11.8766 14.771C11.5263 14.537 11.2533 14.2043 11.0921 13.8151C10.9309 13.4259 10.8887 12.9977 10.9709 12.5845C11.0531 12.1713 11.256 11.7918 11.5538 11.4939C11.8517 11.196 12.2313 10.9931 12.6444 10.9109C13.0576 10.8288 13.4859 10.8709 13.8751 11.0322C14.2643 11.1934 14.597 11.4664 14.831 11.8166C15.0651 12.1669 15.19 12.5787 15.19 13C15.19 13.5649 14.9656 14.1067 14.5661 14.5062C14.1667 14.9056 13.6249 15.13 13.06 15.13Z" fill="white"/>
<path d="M15.7 19.77H10.3C9.22136 19.7674 8.18767 19.3377 7.42497 18.575C6.66227 17.8123 6.23262 16.7786 6.22998 15.7V10.3C6.23262 9.22139 6.66227 8.1877 7.42497 7.425C8.18767 6.6623 9.22136 6.23265 10.3 6.23001H15.7C16.7786 6.23265 17.8123 6.6623 18.575 7.425C19.3377 8.1877 19.7673 9.22139 19.77 10.3V15.7C19.7673 16.7786 19.3377 17.8123 18.575 18.575C17.8123 19.3377 16.7786 19.7674 15.7 19.77ZM10.3 7.51001C9.56003 7.51001 8.85038 7.80396 8.32715 8.32718C7.80393 8.85041 7.50998 9.56006 7.50998 10.3V15.7C7.50998 16.44 7.80393 17.1496 8.32715 17.6728C8.85038 18.1961 9.56003 18.49 10.3 18.49H15.7C16.4399 18.49 17.1496 18.1961 17.6728 17.6728C18.196 17.1496 18.49 16.44 18.49 15.7V10.3C18.49 9.56006 18.196 8.85041 17.6728 8.32718C17.1496 7.80396 16.4399 7.51001 15.7 7.51001H10.3Z" fill="white"/>
</g>
<defs>
<clipPath id="clip0_7656_1711">
<rect width="26" height="26" fill="white"/>
</clipPath>
</defs>
</svg>
