<svg width="26" height="26" viewBox="0 0 26 26" fill="none" xmlns="http://www.w3.org/2000/svg">
<g clip-path="url(#clip0_7656_1703)">
<path d="M13 26C20.1797 26 26 20.1797 26 13C26 5.8203 20.1797 0 13 0C5.8203 0 0 5.8203 0 13C0 20.1797 5.8203 26 13 26Z" fill="#E95297"/>
<path d="M14.44 21.28V14H16.85L17.31 11H14.44V9.09C14.4201 8.86614 14.4508 8.64067 14.5297 8.43024C14.6087 8.21982 14.7339 8.02983 14.8961 7.87431C15.0584 7.71878 15.2535 7.6017 15.467 7.53172C15.6806 7.46174 15.9072 7.44065 16.13 7.47H17.43V4.92C16.6626 4.79707 15.8872 4.73023 15.11 4.72C14.5788 4.68118 14.0455 4.75877 13.5474 4.94736C13.0493 5.13595 12.5983 5.43098 12.226 5.81187C11.8537 6.19276 11.569 6.65032 11.3918 7.1526C11.2145 7.65489 11.1491 8.18981 11.2 8.72V11H8.57001V14H11.2V21.25L14.44 21.28Z" fill="white"/>
</g>
<defs>
<clipPath id="clip0_7656_1703">
<rect width="26" height="26" fill="white"/>
</clipPath>
</defs>
</svg>
