<svg width="26" height="26" viewBox="0 0 26 26" fill="none" xmlns="http://www.w3.org/2000/svg">
<g clip-path="url(#clip0_7656_1717)">
<path d="M26 13C26 16.4478 24.6304 19.7544 22.1924 22.1924C19.7544 24.6304 16.4478 26 13 26C11.2928 26 9.60235 25.6637 8.02512 25.0104C6.44788 24.3571 5.01477 23.3996 3.80761 22.1924C1.36964 19.7544 0 16.4478 0 13C0 9.55219 1.36964 6.24558 3.80761 3.80761C6.24558 1.36964 9.55219 0 13 0C14.7072 0 16.3977 0.336255 17.9749 0.989566C19.5521 1.64288 20.9852 2.60045 22.1924 3.80761C23.3996 5.01477 24.3571 6.44788 25.0104 8.02512C25.6637 9.60235 26 11.2928 26 13Z" fill="#E95297"/>
<path d="M13 4.67002C11.0488 4.74423 9.19545 5.54391 7.80275 6.91258C6.41004 8.28124 5.5782 10.1204 5.47002 12.07C5.39023 13.4565 5.68741 14.8388 6.33002 16.07L5.41002 20C5.40044 20.0414 5.40154 20.0845 5.41322 20.1253C5.4249 20.1661 5.44678 20.2032 5.47679 20.2333C5.5068 20.2633 5.54396 20.2851 5.58476 20.2968C5.62557 20.3085 5.66868 20.3096 5.71002 20.3L9.61002 19.42C10.8401 20.0666 12.2225 20.3672 13.61 20.29C14.6356 20.25 15.6433 20.0083 16.5756 19.5788C17.5078 19.1493 18.3463 18.5404 19.0432 17.7869C19.7401 17.0333 20.2818 16.1499 20.6372 15.187C20.9927 14.2241 21.1551 13.2006 21.115 12.175C21.075 11.1494 20.8333 10.1417 20.4038 9.20948C19.9743 8.27725 19.3654 7.43875 18.6119 6.74184C17.8583 6.04494 16.9749 5.50328 16.012 5.1478C15.0491 4.79231 14.0256 4.62996 13 4.67002ZM13.26 18.67C12.1658 18.6712 11.0915 18.3776 10.15 17.82L9.90002 17.67L7.40002 18.33L8.00002 15.84C7.25295 14.6841 6.91241 13.3122 7.03223 11.9411C7.15205 10.5701 7.72539 9.27802 8.66163 8.26923C9.59787 7.26043 10.8436 6.59243 12.2019 6.37081C13.5603 6.14918 14.9538 6.38657 16.1621 7.04545C17.3704 7.70433 18.3247 8.74712 18.8741 10.009C19.4235 11.2709 19.5367 12.6799 19.1958 14.0133C18.8549 15.3467 18.0793 16.5285 16.9917 17.3718C15.904 18.2152 14.5663 18.672 13.19 18.67H13.26Z" fill="white"/>
<path d="M16.89 15.2C16.7694 15.3761 16.6321 15.5402 16.48 15.69C16.2874 15.8879 16.0522 16.0394 15.7923 16.133C15.5324 16.2265 15.2546 16.2597 14.98 16.23C13.5893 16.0297 12.305 15.3717 11.33 14.36C10.3183 13.3837 9.65739 12.1006 9.45001 10.71C9.42715 10.4335 9.46448 10.1554 9.55943 9.89469C9.65438 9.63402 9.80469 9.39701 10 9.2C10.153 9.05044 10.3205 8.91645 10.5 8.8C10.5687 8.75216 10.6476 8.72096 10.7305 8.70886C10.8134 8.69675 10.8979 8.70409 10.9774 8.73027C11.057 8.75646 11.1293 8.80079 11.1888 8.85975C11.2482 8.91871 11.2932 8.99069 11.32 9.07L11.73 10.3C11.7854 10.412 11.8073 10.5376 11.7931 10.6618C11.7789 10.7859 11.7292 10.9034 11.65 11L11.32 11.33C11.2414 11.4069 11.1915 11.5084 11.1788 11.6176C11.1661 11.7268 11.1912 11.8371 11.25 11.93C11.5809 12.4282 11.9667 12.8878 12.4 13.3C12.814 13.7246 13.2697 14.1065 13.76 14.44C13.8527 14.5027 13.9644 14.531 14.0758 14.52C14.1872 14.5091 14.2913 14.4596 14.37 14.38L14.7 14.05C14.7932 13.9681 14.9092 13.9165 15.0325 13.9022C15.1558 13.8879 15.2805 13.9116 15.39 13.97L16.63 14.38C16.7085 14.408 16.7794 14.4537 16.8373 14.5136C16.8951 14.5736 16.9384 14.6461 16.9635 14.7255C16.9887 14.8049 16.9952 14.889 16.9824 14.9714C16.9697 15.0537 16.938 15.1319 16.89 15.2Z" fill="white"/>
</g>
<defs>
<clipPath id="clip0_7656_1717">
<rect width="26" height="26" fill="white"/>
</clipPath>
</defs>
</svg>
