<svg width="135" height="125" viewBox="0 0 135 125" fill="none" xmlns="http://www.w3.org/2000/svg">
<g clip-path="url(#clip0_7608_2408)">
<path d="M96.3897 8.31738L30.384 13.8773V86.7136H91.4389C103.288 86.7136 112.887 76.1664 112.887 63.0275V26.5641C112.887 16.484 105.506 8.31738 96.3897 8.31738Z" fill="#FF6699"/>
<path d="M94.186 51.6513C93.5672 51.6513 90.2918 51.576 89.6579 51.576C89.0239 51.576 83.892 50.5062 79.0921 50.0693C73.5403 49.4668 67.9264 49.8082 62.4888 51.0788C55.5607 52.8567 48.4515 54.258 43.6818 52.9472C40.9116 52.2265 38.2251 51.2164 35.6669 49.9337V44.3737C40.98 48.0653 48.7232 50.672 61.0549 46.2873C67.093 44.5549 73.4465 44.2148 79.6355 45.2929C87.9523 46.9202 95.5747 47.3119 97.9595 46.2873C99.2306 45.5393 100.552 44.8797 101.914 44.3135V49.6172C101.084 50.2802 98.9708 51.3651 94.186 51.6513Z" fill="#FF6699"/>
<path d="M101.899 31.4459V44.3135C100.537 44.8798 99.2155 45.5393 97.9444 46.2874C95.5596 47.312 87.9372 46.9202 79.6204 45.2929C73.4314 44.2149 67.0779 44.555 61.0398 46.2874C48.7081 50.672 40.9649 48.0653 35.6519 44.3738V16.9962L86.458 15.3086C90.647 15.4113 94.6244 17.1675 97.5187 20.1923C100.413 23.2171 101.988 27.2639 101.899 31.4459Z" fill="#99ECF5"/>
<path d="M94.1861 51.6516C98.9708 51.4256 101.069 50.3407 101.899 49.6777V62.1988C101.996 66.3875 100.425 70.4436 97.5305 73.4773C94.6358 76.5111 90.6537 78.2747 86.458 78.3813L35.6519 81.6058V49.8887C38.21 51.1714 40.8965 52.1815 43.6667 52.9022C48.4364 54.2131 55.5456 52.8118 62.4737 51.0338C67.9113 49.7632 73.5252 49.4219 79.0771 50.0243C83.8316 50.401 89.0239 51.531 89.6428 51.531C90.2616 51.531 93.537 51.6516 94.1861 51.6516Z" fill="#99ECF5"/>
<path d="M75.4243 10.0801C75.3636 9.79012 75.2725 9.50731 75.1526 9.23632C74.9232 8.66982 74.5789 8.15682 74.1413 7.72957C73.6771 7.34271 73.1708 7.00913 72.6319 6.73511C73.7338 5.22836 74.7602 5.09275 76.979 4.97221C76.496 4.59553 76.813 3.72161 76.4658 3.70654C74.5487 3.96319 72.8035 4.94483 71.5905 6.44883C71.3596 6.42645 71.127 6.42645 70.8961 6.44883C70.2674 6.44244 69.6445 6.5709 69.0698 6.82552C67.9432 7.301 67.0488 8.19924 66.5793 9.32672C66.3504 9.8388 66.2321 10.3933 66.2321 10.954" fill="#FF6699"/>
<path d="M101.899 44.3135V49.6172C101.069 50.2802 98.9708 51.3651 94.186 51.5911C93.5672 51.5911 90.2918 51.5157 89.6579 51.5157C89.0239 51.5157 83.892 50.4459 79.0921 50.009C73.5403 49.4066 67.9264 49.7479 62.4888 51.0185C55.5607 52.7965 48.4515 54.1978 43.6818 52.8869C40.9116 52.1662 38.2251 51.1561 35.6669 49.8734V44.3737C40.98 48.0653 48.7232 50.672 61.0549 46.2873C67.093 44.5549 73.4465 44.2148 79.6355 45.2929C87.9523 46.9202 95.5747 47.3119 97.9595 46.2873C99.2258 45.5399 100.542 44.8804 101.899 44.3135Z" fill="#FF6699"/>
<path d="M21.0862 111.424C21.1192 113.054 20.9054 114.68 20.4523 116.246C20.1028 117.473 19.552 118.634 18.8221 119.681C18.2062 120.562 17.4398 121.327 16.558 121.941C15.7372 122.493 14.8496 122.939 13.9166 123.267C13.0717 123.572 12.1962 123.784 11.3053 123.9C10.5544 123.996 9.79831 124.047 9.04126 124.051C7.92431 124.051 6.9583 124.051 6.17341 123.945C5.38853 123.84 4.73949 123.825 4.2112 123.825H2.26409C1.53958 123.825 0.784884 123.87 0 123.961C0.31871 123.349 0.59116 122.714 0.815072 122.062C1.06778 121.36 1.2844 120.646 1.46411 119.922C1.63014 119.169 1.78108 118.416 1.90183 117.617C2.02258 116.819 2.12824 116.11 2.20371 115.372C2.38484 113.664 2.4905 111.917 2.52068 110.129C2.52068 108.336 2.39993 106.663 2.24899 105.096C2.24899 104.433 2.09805 103.755 2.00749 103.092C1.91693 102.429 1.78108 101.781 1.64524 101.178C1.52168 100.621 1.36031 100.072 1.16223 99.5361C0.995723 99.1096 0.761261 98.7127 0.467911 98.3608C1.29735 98.5043 2.13366 98.6049 2.9735 98.6622C3.7282 98.6622 4.48289 98.6622 4.99609 98.6622C5.50928 98.6622 5.75078 98.6622 6.09794 98.6622H7.21489L8.4375 98.5869H9.94689C10.7799 98.5849 11.612 98.6402 12.4374 98.7526C13.3121 98.8579 14.1695 99.0757 14.9883 99.4005C15.8529 99.7276 16.6623 100.185 17.3882 100.757C18.1968 101.398 18.8778 102.185 19.3957 103.077C20.0243 104.168 20.4872 105.346 20.7692 106.573C21.0619 108.172 21.1682 109.8 21.0862 111.424ZM12.6185 111.033C12.6185 109.692 12.6185 108.577 12.4978 107.673C12.4485 106.94 12.3323 106.214 12.1506 105.503C12.0577 105.075 11.8607 104.677 11.577 104.343C11.4733 104.235 11.3491 104.149 11.2118 104.089C11.0745 104.03 10.9267 103.998 10.7771 103.996C10.6325 104.001 10.4913 104.041 10.3653 104.112C10.2392 104.182 10.132 104.282 10.0525 104.403C9.78934 104.796 9.60481 105.236 9.50917 105.699C9.33909 106.458 9.22308 107.228 9.16201 108.004C9.08654 108.953 9.04126 110.083 9.04126 111.424C9.04126 112.765 9.04126 113.986 9.16201 114.935C9.2074 115.692 9.31851 116.443 9.49407 117.18C9.57296 117.618 9.75393 118.031 10.0224 118.386C10.1164 118.493 10.2323 118.58 10.3624 118.64C10.4925 118.699 10.6339 118.731 10.7771 118.732C11.3355 118.732 11.7884 118.114 12.1204 116.894C12.5396 114.969 12.7271 113.002 12.6789 111.033H12.6185Z" fill="#FF6699"/>
<path d="M37.3876 107.597C37.3915 108.455 37.2643 109.308 37.0103 110.128C36.763 110.947 36.3171 111.692 35.7122 112.298C34.9971 112.984 34.1352 113.499 33.1915 113.805C31.8951 114.22 30.5376 114.414 29.1765 114.377C29.2078 114.866 29.3253 115.346 29.5237 115.794C29.6925 116.138 29.9285 116.445 30.218 116.698C30.4637 116.925 30.7506 117.104 31.0633 117.225C31.3332 117.327 31.6108 117.408 31.8934 117.466C32.1897 117.492 32.4877 117.492 32.784 117.466C33.4362 117.427 34.0756 117.268 34.6707 116.999C34.9224 116.874 35.1602 116.722 35.3801 116.547C35.624 116.371 35.8381 116.158 36.0141 115.914C36.2144 115.66 36.3724 115.375 36.482 115.07C36.6128 114.718 36.6842 114.346 36.6933 113.97C36.9726 114.646 37.1849 115.348 37.3273 116.065C37.4568 116.685 37.5275 117.315 37.5386 117.948C37.5563 118.897 37.3793 119.84 37.0185 120.719C36.6577 121.597 36.1207 122.393 35.4405 123.056C34.7651 123.711 33.9642 124.224 33.0859 124.563C32.1457 124.918 31.1478 125.097 30.1425 125.09C29.1131 125.092 28.0914 124.914 27.1238 124.563C26.1552 124.196 25.283 123.613 24.5729 122.86C23.7707 121.994 23.1635 120.967 22.7918 119.847C22.3122 118.389 22.0875 116.86 22.1277 115.326C22.0947 113.583 22.3759 111.848 22.9578 110.204C23.442 108.823 24.1962 107.553 25.1766 106.467C26.0886 105.501 27.1912 104.735 28.4148 104.216C29.6385 103.697 30.9566 103.438 32.2859 103.453C32.9366 103.451 33.5852 103.527 34.2179 103.679C34.8051 103.815 35.3593 104.066 35.8481 104.418C36.3168 104.771 36.6945 105.231 36.9499 105.759C37.2312 106.331 37.3808 106.959 37.3876 107.597ZM29.1011 111.545C29.4851 111.516 29.8647 111.445 30.2331 111.334C30.6535 111.215 31.0588 111.048 31.4406 110.836C31.8031 110.623 32.125 110.348 32.3915 110.023C32.6527 109.71 32.7921 109.314 32.784 108.908C32.7878 108.789 32.7654 108.671 32.7185 108.561C32.6716 108.452 32.6012 108.354 32.5123 108.275C32.3155 108.107 32.0616 108.021 31.8029 108.034C31.4129 108.031 31.032 108.152 30.7161 108.38C30.3938 108.609 30.1216 108.902 29.9161 109.239C29.6852 109.598 29.4977 109.982 29.3577 110.384C29.2341 110.762 29.1481 111.15 29.1011 111.545Z" fill="#FF6699"/>
<path d="M46.5194 123.584H45.8402H45.01H43.9384C43.1837 123.584 42.3233 123.584 41.3422 123.689C40.3611 123.795 39.3196 123.87 38.1725 124.036C38.3705 123.608 38.5174 123.157 38.6102 122.695C38.731 122.137 38.8366 121.489 38.9423 120.766C39.0479 120.043 39.1083 119.259 39.1687 118.476C39.2291 117.692 39.2894 116.849 39.3196 116.035C39.3498 115.221 39.3951 114.423 39.4102 113.654C39.4253 112.886 39.4102 112.148 39.4102 111.59C39.4102 111.033 39.4102 110.445 39.4102 110.083V109.255C39.4102 107.326 39.3347 105.548 39.2592 103.906C39.2592 103.213 39.2592 102.52 39.1385 101.811C39.0177 101.103 39.0328 100.455 38.9574 99.8526C38.8819 99.2499 38.8215 98.7074 38.731 98.2403C38.6687 97.8838 38.5674 97.5352 38.4291 97.2007C39.2884 97.3545 40.1548 97.4652 41.0252 97.5322C41.8101 97.5322 42.5346 97.6226 43.1686 97.6226H44.2855H45.1308C45.3744 97.6131 45.6168 97.5828 45.8553 97.5322C45.7496 98.0595 45.6591 98.7074 45.5685 99.506C45.4779 100.305 45.4176 101.194 45.3572 102.173C45.2968 103.152 45.2364 103.981 45.2364 105.111C45.2364 106.241 45.2364 107.432 45.2364 108.637C45.2364 109.842 45.2364 111.409 45.3119 112.811C45.3874 114.212 45.4327 115.583 45.5383 116.894C45.644 118.205 45.7798 119.425 45.9459 120.57C46.0728 121.586 46.2643 122.593 46.5194 123.584Z" fill="#FF6699"/>
<path d="M62.3982 107.597C62.3946 108.455 62.2675 109.307 62.0209 110.129C61.774 110.951 61.3222 111.697 60.7077 112.298C59.9986 112.985 59.1415 113.5 58.2021 113.805C56.9009 114.222 55.5382 114.416 54.172 114.378C54.2005 114.869 54.3235 115.349 54.5343 115.794C54.6979 116.138 54.9289 116.445 55.2135 116.698C55.4617 116.922 55.7479 117.101 56.0588 117.225C56.3287 117.327 56.6063 117.408 56.889 117.466C57.1903 117.492 57.4933 117.492 57.7946 117.466C58.4615 117.405 59.1114 117.221 59.7115 116.924C59.9632 116.799 60.201 116.647 60.4209 116.472C60.6579 116.288 60.8709 116.076 61.0549 115.839C61.2491 115.581 61.4066 115.297 61.5228 114.995C61.6465 114.641 61.7176 114.27 61.7341 113.895C62.0134 114.571 62.2257 115.273 62.368 115.99C62.4922 116.635 62.5529 117.291 62.5492 117.949C62.5552 118.93 62.3653 119.904 61.9907 120.811C61.6411 121.652 61.1281 122.415 60.4813 123.056C59.814 123.715 59.0175 124.228 58.1417 124.563C57.1779 124.928 56.1536 125.107 55.123 125.091C54.0935 125.092 53.0718 124.914 52.1042 124.563C51.1331 124.192 50.2566 123.611 49.5382 122.861C48.7464 121.987 48.1405 120.962 47.7571 119.847C47.2849 118.388 47.0604 116.86 47.093 115.327C47.0601 113.583 47.3413 111.848 47.9232 110.204C48.4183 108.826 49.177 107.556 50.1571 106.467C51.069 105.501 52.1716 104.735 53.3952 104.216C54.6189 103.698 55.937 103.438 57.2663 103.454C57.9121 103.451 58.5558 103.527 59.1832 103.68C59.7704 103.815 60.3246 104.066 60.8134 104.418C61.2868 104.77 61.6697 105.23 61.9303 105.759C62.2148 106.332 62.3742 106.958 62.3982 107.597ZM57.4776 101.962L54.0362 100.455C54.7456 99.4457 55.3947 98.4663 56.0135 97.5321L56.7984 96.3267C57.0701 95.9199 57.3267 95.5131 57.5531 95.1213C57.7795 94.7295 58.0059 94.383 58.2021 94.0364C58.3983 93.6899 58.5644 93.3885 58.67 93.1475C59.0323 93.4187 59.47 93.705 59.9832 94.0214L61.4926 94.8802L63.2133 95.8295L57.4776 101.962ZM54.1117 111.545C54.4907 111.516 54.8653 111.446 55.2286 111.334C55.65 111.218 56.0555 111.051 56.4361 110.837C56.8059 110.628 57.1335 110.352 57.4021 110.023C57.6576 109.708 57.7962 109.314 57.7946 108.908C57.7984 108.789 57.776 108.671 57.7291 108.562C57.6822 108.452 57.6118 108.354 57.5229 108.275C57.3246 108.11 57.0717 108.024 56.8135 108.034C56.4235 108.031 56.0426 108.152 55.7267 108.381C55.4034 108.613 55.1268 108.905 54.9117 109.24C54.6797 109.595 54.497 109.98 54.3683 110.385C54.2373 110.76 54.1512 111.149 54.1117 111.545Z" fill="#FF6699"/>
<path d="M71.6659 123.584H70.9716H70.1716H69.0848C68.3452 123.584 67.4849 123.584 66.5038 123.689C65.5227 123.794 64.451 123.87 63.319 124.036C63.5665 123.511 63.7538 122.96 63.8774 122.393C64.0133 121.73 64.1491 121.022 64.2397 120.269C64.3303 119.515 64.4208 118.762 64.4661 117.978C64.5114 117.195 64.5567 116.472 64.5718 115.854C64.5869 115.236 64.5718 114.664 64.5718 114.212C64.5718 113.76 64.5718 113.488 64.5718 113.368C64.5718 111.861 64.4963 110.475 64.4208 109.179L64.3454 107.401C64.3454 106.828 64.2397 106.301 64.1642 105.804C64.0888 105.307 64.0133 104.855 63.9378 104.448C63.8719 104.124 63.7654 103.81 63.6208 103.514C64.5567 103.679 65.4321 103.785 66.217 103.845C67.0019 103.905 67.7264 103.845 68.3905 103.845H69.4924H70.3376L71.0622 103.755C70.8254 104.995 70.6541 106.248 70.549 107.507C70.4282 109.013 70.3527 110.52 70.3527 112.193C70.3527 113.157 70.3527 114.121 70.3527 115.101C70.3527 116.08 70.4735 117.044 70.5791 118.024C70.6848 119.003 70.8056 119.952 70.9867 120.886C71.1678 121.821 71.4244 122.725 71.6659 123.584ZM63.7265 98.903C63.7241 98.3855 63.8268 97.8729 64.0284 97.3962C64.2283 96.9423 64.5096 96.5287 64.8585 96.1758C65.2123 95.8207 65.633 95.5391 66.0963 95.347C66.5726 95.142 67.0869 95.0393 67.6056 95.0457C68.6264 95.0457 69.6054 95.4505 70.3273 96.171C71.0491 96.8916 71.4546 97.8689 71.4546 98.8879C71.4609 99.4057 71.3581 99.9191 71.1527 100.395C70.9603 100.857 70.6782 101.277 70.3225 101.63C69.969 101.978 69.5547 102.259 69.0999 102.459C68.6224 102.66 68.1089 102.763 67.5906 102.76C67.0725 102.759 66.5597 102.657 66.0812 102.459C65.1467 102.069 64.4037 101.328 64.0133 100.395C63.8219 99.9206 63.7245 99.414 63.7265 98.903Z" fill="#FF6699"/>
<path d="M86.4429 102.7C86.3523 103.212 86.2919 103.725 86.2466 104.207C86.2014 104.689 86.2466 105.201 86.2466 105.713C86.2466 106.226 86.2466 106.708 86.2466 107.22C86.2466 107.732 86.3523 108.215 86.4429 108.727C85.8521 108.429 85.2219 108.216 84.5712 108.094C83.8634 107.945 83.1478 107.834 82.4279 107.763V109.269C82.4279 110.58 82.4279 111.891 82.4279 113.217C82.4279 114.543 82.5486 115.839 82.6543 117.089C82.7599 118.34 82.8958 119.515 83.0618 120.63C83.1995 121.646 83.4012 122.653 83.6656 123.644H82.9863H82.1713H81.0996C80.3449 123.644 79.4846 123.644 78.5035 123.749C77.5224 123.855 76.4658 123.93 75.3186 124.096C75.7217 121.782 76.0038 119.448 76.1639 117.104C76.3299 114.679 76.4054 112.313 76.4054 109.993V107.778C75.6205 107.778 74.896 107.928 74.0809 108.049C73.3493 108.157 72.6238 108.303 71.9074 108.486C71.9617 108.324 72.0021 108.157 72.0282 107.989C72.0282 107.778 72.0282 107.567 72.1187 107.341C72.2093 107.115 72.1187 106.919 72.1187 106.708V106.181C72.1187 105.593 72.1187 105.02 72.1187 104.448C72.1187 103.875 72.0131 103.288 71.9376 102.7C72.5758 102.953 73.2384 103.14 73.9149 103.257C74.6827 103.409 75.4589 103.515 76.2394 103.574C76.2394 102.579 76.0884 101.66 75.9828 100.801C75.8771 99.9426 75.7865 99.1741 75.6658 98.4961C76.6016 98.6468 77.462 98.7523 78.262 98.8125C79.0619 98.8728 79.7713 98.9029 80.4204 98.9029H81.5373H82.3675H83.092C82.9509 99.58 82.8451 100.264 82.775 100.952C82.6845 101.781 82.609 102.7 82.5335 103.709C83.2539 103.642 83.9697 103.531 84.6769 103.378C85.2901 103.222 85.8828 102.994 86.4429 102.7Z" fill="#FF6699"/>
<path d="M104.646 123.975H103.876H103.016H101.899C101.325 123.975 100.692 123.975 99.9972 123.975C99.3029 123.975 98.6086 124.111 97.8841 124.232L97.9595 119.395C97.6436 120.852 96.9809 122.211 96.0275 123.358C95.6587 123.799 95.1968 124.153 94.675 124.395C94.1532 124.637 93.5842 124.762 93.0087 124.759C92.6028 124.753 92.1984 124.707 91.8012 124.623C91.3436 124.472 90.9112 124.254 90.5182 123.975C90.0085 123.685 89.5455 123.319 89.1447 122.891C88.6604 122.364 88.263 121.764 87.9674 121.113C87.5864 120.259 87.3077 119.364 87.1372 118.446C86.9095 117.224 86.8034 115.982 86.8202 114.739C86.788 113.068 86.9861 111.4 87.4089 109.782C87.7204 108.581 88.2305 107.44 88.9183 106.407C89.4338 105.62 90.1264 104.965 90.9409 104.493C91.5984 104.115 92.3406 103.908 93.0993 103.891C93.6523 103.88 94.2032 103.962 94.7294 104.132C95.1949 104.286 95.6368 104.504 96.0426 104.779C96.4105 105.022 96.741 105.316 97.0237 105.653C97.2882 105.946 97.5162 106.27 97.7029 106.618C97.7029 106.226 97.6124 105.804 97.552 105.367C97.4916 104.93 97.401 104.463 97.3105 103.996C98.0625 104.145 98.8241 104.241 99.5897 104.282C100.359 104.282 101.099 104.282 101.733 104.282C102.367 104.282 103.152 104.282 103.635 104.282C104.118 104.282 104.163 104.282 104.39 104.282C104.269 104.855 104.148 105.503 104.042 106.211C103.937 106.919 103.861 107.718 103.786 108.501C103.71 109.285 103.65 110.159 103.605 111.048C103.559 111.937 103.605 112.856 103.605 113.79C103.605 115.523 103.695 117.27 103.861 119.018C103.988 120.689 104.25 122.347 104.646 123.975ZM97.5369 114.076V111.213C97.5369 110.892 97.5369 110.575 97.5369 110.264C97.4996 109.958 97.4183 109.658 97.2954 109.375C97.1759 109.119 96.9944 108.896 96.7671 108.727C96.4901 108.547 96.1613 108.462 95.8313 108.486C95.6401 108.48 95.4498 108.515 95.2729 108.588C95.0961 108.66 94.9366 108.769 94.8049 108.908C94.5084 109.256 94.2874 109.661 94.1559 110.098C93.952 110.688 93.8202 111.3 93.7634 111.921C93.7634 112.6 93.6578 113.428 93.6578 114.151C93.6629 114.62 93.6982 115.088 93.7634 115.553C93.8154 115.991 93.9219 116.421 94.0804 116.834C94.2069 117.192 94.4133 117.516 94.6841 117.783C94.8083 117.902 94.955 117.995 95.1156 118.057C95.2763 118.12 95.4477 118.149 95.62 118.144C95.8082 118.151 95.9956 118.115 96.1681 118.039C96.3405 117.964 96.4937 117.85 96.6162 117.707C96.8883 117.398 97.0893 117.033 97.2048 116.638C97.3308 116.199 97.4167 115.75 97.4614 115.297C97.5165 114.867 97.5417 114.434 97.5369 114.001V114.076Z" fill="#FF6699"/>
<path d="M119.559 102.7C119.465 103.198 119.4 103.701 119.363 104.207C119.363 104.704 119.363 105.201 119.363 105.713C119.363 106.226 119.363 106.708 119.363 107.22C119.399 107.726 119.465 108.229 119.559 108.727C118.967 108.434 118.337 108.226 117.687 108.109C116.979 107.961 116.264 107.85 115.544 107.778V109.284C115.544 110.595 115.544 111.906 115.544 113.232C115.544 114.558 115.665 115.854 115.77 117.104C115.876 118.355 116.012 119.53 116.178 120.645C116.316 121.661 116.517 122.668 116.782 123.659H116.087H115.287H114.216C113.461 123.659 112.601 123.659 111.62 123.764C110.638 123.87 109.582 123.945 108.435 124.111C108.827 121.866 109.099 119.591 109.28 117.12C109.461 114.648 109.521 112.328 109.521 110.008V107.778C108.737 107.778 108.012 107.928 107.197 108.049C106.465 108.157 105.74 108.303 105.023 108.486C105.078 108.324 105.118 108.157 105.144 107.989C105.185 107.775 105.21 107.558 105.22 107.341C105.22 107.13 105.22 106.919 105.22 106.708V106.181C105.22 105.593 105.22 105.02 105.22 104.448C105.22 103.875 105.114 103.288 105.039 102.7C105.676 102.955 106.339 103.142 107.016 103.257C107.779 103.409 108.55 103.515 109.325 103.574C109.325 102.579 109.174 101.66 109.084 100.801C108.993 99.9426 108.888 99.1741 108.767 98.4961C109.688 98.6468 110.563 98.7523 111.348 98.8125C112.133 98.8728 112.857 98.9029 113.521 98.9029H114.638H115.468H116.193C116.052 99.58 115.946 100.264 115.876 100.952C115.785 101.781 115.71 102.7 115.619 103.709C116.345 103.643 117.066 103.532 117.778 103.378C118.396 103.223 118.994 102.995 119.559 102.7Z" fill="#FF6699"/>
<path d="M134.834 107.597C134.835 108.454 134.713 109.306 134.472 110.128C134.213 110.945 133.763 111.689 133.159 112.298C132.443 112.984 131.582 113.5 130.638 113.805C129.341 114.22 127.984 114.414 126.623 114.377C126.654 114.866 126.772 115.346 126.97 115.794C127.139 116.138 127.375 116.446 127.664 116.698C127.91 116.925 128.197 117.104 128.51 117.225C128.78 117.327 129.057 117.408 129.34 117.466C129.636 117.491 129.934 117.491 130.23 117.466C130.902 117.404 131.557 117.22 132.162 116.924C132.412 116.795 132.649 116.644 132.872 116.472C133.108 116.292 133.317 116.079 133.491 115.839C133.691 115.585 133.849 115.3 133.959 114.995C134.088 114.642 134.164 114.271 134.185 113.895C134.453 114.574 134.66 115.275 134.804 115.99C134.928 116.635 134.989 117.291 134.985 117.948C135.003 118.898 134.826 119.84 134.465 120.719C134.104 121.597 133.567 122.393 132.887 123.056C132.211 123.711 131.411 124.224 130.532 124.563C129.569 124.929 128.544 125.108 127.513 125.09C126.484 125.092 125.462 124.914 124.495 124.563C123.528 124.192 122.657 123.61 121.944 122.86C121.147 121.99 120.54 120.964 120.163 119.847C119.683 118.389 119.458 116.86 119.499 115.327C119.466 113.583 119.747 111.848 120.329 110.204C120.818 108.823 121.577 107.553 122.563 106.467C123.466 105.486 124.567 104.705 125.793 104.177C127.038 103.604 128.391 103.301 129.762 103.288C130.413 103.285 131.062 103.361 131.694 103.514C132.282 103.649 132.836 103.9 133.325 104.252C133.794 104.609 134.176 105.067 134.442 105.593C134.724 106.222 134.858 106.908 134.834 107.597ZM126.547 111.545C126.932 111.518 127.311 111.447 127.679 111.334C128.1 111.215 128.505 111.048 128.887 110.836C129.251 110.619 129.577 110.345 129.853 110.023C130.104 109.706 130.237 109.312 130.23 108.908C130.234 108.789 130.212 108.671 130.165 108.561C130.118 108.452 130.047 108.354 129.959 108.275C129.762 108.107 129.508 108.021 129.249 108.034C128.864 108.031 128.488 108.152 128.178 108.38C127.854 108.613 127.578 108.904 127.362 109.239C127.131 109.595 126.948 109.98 126.819 110.384C126.684 110.759 126.592 111.149 126.547 111.545Z" fill="#FF6699"/>
</g>
<defs>
<clipPath id="clip0_7608_2408">
<rect width="135" height="125" fill="white"/>
</clipPath>
</defs>
</svg>
