<svg width="26" height="26" viewBox="0 0 26 26" fill="none" xmlns="http://www.w3.org/2000/svg">
<g clip-path="url(#clip0_7656_1707)">
<path d="M26 13C26 16.4478 24.6304 19.7544 22.1924 22.1924C19.7544 24.6304 16.4478 26 13 26C11.2928 26 9.60235 25.6637 8.02512 25.0104C6.44788 24.3571 5.01477 23.3996 3.80761 22.1924C1.36964 19.7544 0 16.4478 0 13C0 9.55219 1.36964 6.24558 3.80761 3.80761C6.24558 1.36964 9.55219 0 13 0C14.7072 0 16.3977 0.336255 17.9749 0.989566C19.5521 1.64288 20.9852 2.60045 22.1924 3.80761C23.3996 5.01477 24.3571 6.44788 25.0104 8.02512C25.6637 9.60235 26 11.2928 26 13Z" fill="#E95297"/>
<path d="M15.58 16.35V9.91002C15.58 9.91002 16.3 11.12 18.93 11.19C18.9632 11.1914 18.9964 11.1859 19.0273 11.1739C19.0583 11.1618 19.0864 11.1434 19.11 11.1199C19.1335 11.0964 19.1518 11.0683 19.1639 11.0373C19.1759 11.0064 19.1814 10.9732 19.18 10.94V9.12002C19.1801 9.05541 19.1551 8.99329 19.1104 8.94668C19.0656 8.90008 19.0046 8.8726 18.94 8.87002C18.1249 8.84245 17.3508 8.50564 16.7751 7.92801C16.1993 7.35037 15.865 6.57522 15.84 5.76002C15.8349 5.69547 15.8049 5.63544 15.7565 5.59254C15.708 5.54964 15.6447 5.52723 15.58 5.53002H13.51C13.4437 5.53002 13.3801 5.55636 13.3333 5.60324C13.2864 5.65013 13.26 5.71371 13.26 5.78002V16C13.2659 16.5445 13.0611 17.0702 12.6884 17.4672C12.3156 17.8642 11.8038 18.1017 11.26 18.13C10.7212 18.1738 10.1868 18.0041 9.77195 17.6574C9.35716 17.3107 9.09527 16.8149 9.04277 16.2768C8.99028 15.7388 9.1514 15.2017 9.49136 14.7813C9.83133 14.361 10.3229 14.0912 10.86 14.03C11.0361 14.0101 11.2139 14.0101 11.39 14.03C11.4247 14.0359 11.4603 14.0341 11.4942 14.0246C11.5281 14.0152 11.5595 13.9985 11.5862 13.9756C11.613 13.9527 11.6343 13.9242 11.6488 13.8921C11.6633 13.8601 11.6705 13.8252 11.67 13.79V12C11.6702 11.937 11.6467 11.8763 11.604 11.83C11.5614 11.7836 11.5028 11.7551 11.44 11.75C11.1739 11.7253 10.9061 11.7253 10.64 11.75C9.80194 11.8502 9.01066 12.1905 8.36138 12.7298C7.7121 13.2691 7.23248 13.9845 6.98022 14.79C6.72796 15.5955 6.7138 16.4567 6.93946 17.27C7.16512 18.0834 7.62098 18.8142 8.25219 19.3745C8.8834 19.9349 9.66308 20.3009 10.4974 20.4286C11.3318 20.5563 12.1852 20.4402 12.9551 20.0943C13.7251 19.7484 14.3786 19.1873 14.8372 18.4787C15.2958 17.7701 15.5398 16.9441 15.54 16.1" fill="white"/>
</g>
<defs>
<clipPath id="clip0_7656_1707">
<rect width="26" height="26" fill="white"/>
</clipPath>
</defs>
</svg>
