<svg width="18" height="25" viewBox="0 0 18 25" fill="none" xmlns="http://www.w3.org/2000/svg">
<g clip-path="url(#clip0_7656_1700)">
<path d="M17.88 7.62C17.5377 5.50593 16.4584 3.58117 14.8331 2.18653C13.2078 0.791887 11.1415 0.0173297 8.99999 0C7.80851 0.00784408 6.63028 0.250631 5.53276 0.71446C4.43524 1.17829 3.43999 1.85405 2.60399 2.70305C1.768 3.55205 1.10768 4.55761 0.660849 5.66216C0.214015 6.7667 -0.0105581 7.94854 -1.12386e-05 9.14C0.040243 10.0821 0.246753 11.0098 0.609987 11.88C2.60999 17.17 8.99999 24.36 8.99999 24.36C8.99999 24.36 18 14.18 18 9.14C17.9952 8.63117 17.9551 8.12328 17.88 7.62ZM8.99999 12.18C8.61281 12.1829 8.22887 12.1093 7.8702 11.9635C7.51154 11.8176 7.18522 11.6023 6.90999 11.33C6.62066 11.0435 6.39121 10.7024 6.23498 10.3264C6.07875 9.95044 5.99887 9.54714 5.99999 9.14C5.99999 8.34435 6.31606 7.58129 6.87867 7.01868C7.44128 6.45607 8.20434 6.14 8.99999 6.14C9.53866 6.13754 10.0681 6.28017 10.5326 6.55291C10.9971 6.82564 11.3796 7.21842 11.64 7.69C11.8772 8.13646 12.0008 8.63445 12 9.14C12.0053 9.53732 11.9316 9.93173 11.7832 10.3003C11.6348 10.6689 11.4147 11.0044 11.1356 11.2872C10.8565 11.5701 10.524 11.7946 10.1574 11.9479C9.79074 12.1011 9.39734 12.18 8.99999 12.18Z" fill="#E95297"/>
</g>
<defs>
<clipPath id="clip0_7656_1700">
<rect width="18" height="24.36" fill="white"/>
</clipPath>
</defs>
</svg>
