<svg width="154" height="61" viewBox="0 0 154 61" fill="none" xmlns="http://www.w3.org/2000/svg">
<g id="marca gr&#195;&#161;fica" clip-path="url(#clip0_7632_642)">
<path id="Vector" d="M47.33 5.53L3.60001 9.22V57.56H44.05C51.89 57.56 58.26 50.56 58.26 41.83V17.63C58.26 10.95 53.36 5.53 47.33 5.53Z" fill="#FF6699"/>
<path id="Vector_2" d="M45.87 34.25C45.46 34.25 43.28 34.25 42.87 34.25C42.46 34.25 39.05 33.54 35.87 33.25C32.1924 32.8465 28.473 33.0697 24.87 33.91C20.27 35.09 15.55 36.02 12.4 35.14C10.5648 34.6611 8.78508 33.9908 7.09 33.14V29.45C10.61 31.9 15.74 33.64 23.91 30.72C27.9111 29.5736 32.1204 29.3513 36.22 30.07C41.72 31.15 46.78 31.41 48.36 30.72C49.2033 30.2256 50.0785 29.788 50.98 29.41V32.93C50.43 33.38 49.04 34.1 45.87 34.25Z" fill="#FF6699"/>
<path id="Vector_3" d="M50.98 20.88V29.41C50.0785 29.788 49.2033 30.2256 48.36 30.72C46.78 31.41 41.72 31.15 36.22 30.07C32.1204 29.3513 27.9111 29.5736 23.91 30.72C15.74 33.64 10.61 31.9 7.09 29.45V11.27L40.74 10.14C43.5215 10.2081 46.1622 11.3775 48.0822 13.3912C50.0022 15.405 51.0444 18.0984 50.98 20.88Z" fill="#99ECF5"/>
<path id="Vector_4" d="M45.87 34.25C49.04 34.1 50.43 33.38 50.98 32.93V41.28C51.0132 42.6577 50.7747 44.0284 50.278 45.3138C49.7813 46.5993 49.0362 47.7742 48.0852 48.7716C47.1343 49.769 45.9961 50.5692 44.7358 51.1266C43.4755 51.684 42.1177 51.9876 40.74 52.02L7.09 54.17V33.12C8.78508 33.9708 10.5648 34.6411 12.4 35.12C15.55 35.99 20.27 35.12 24.86 33.88C28.4791 33.034 32.2159 32.8108 35.91 33.22C39.06 33.47 42.49 34.22 42.91 34.22C43.33 34.22 45.46 34.27 45.87 34.25Z" fill="#99ECF5"/>
<path id="Vector_5" d="M33.46 6.7C33.4198 6.50755 33.3594 6.31986 33.28 6.14C33.1207 5.76797 32.8935 5.42886 32.61 5.14C32.2997 4.88403 31.9647 4.65959 31.61 4.47C32.35 3.47 33.03 3.39 34.5 3.31C34.17 3.05 34.39 2.48 34.16 2.47C32.8779 2.61779 31.7026 3.2556 30.88 4.25C30.7268 4.24006 30.5732 4.24006 30.42 4.25C30.0046 4.24731 29.5929 4.32896 29.21 4.49C28.834 4.64644 28.4937 4.8778 28.21 5.17C27.9265 5.45675 27.7022 5.79656 27.55 6.17C27.3997 6.51071 27.3182 6.87772 27.31 7.25" fill="#FF6699"/>
<path id="Vector_6" d="M50.98 29.41V32.93C50.43 33.38 49.04 34.1 45.87 34.25C45.46 34.25 43.28 34.25 42.87 34.25C42.46 34.25 39.05 33.54 35.87 33.25C32.1924 32.8465 28.473 33.0697 24.87 33.91C20.27 35.09 15.55 36.02 12.4 35.14C10.5648 34.6611 8.78508 33.9908 7.09 33.14V29.45C10.61 31.9 15.74 33.64 23.91 30.72C27.9111 29.5736 32.1204 29.3513 36.22 30.07C41.72 31.15 46.78 31.41 48.36 30.72C49.2033 30.2256 50.0785 29.788 50.98 29.41Z" fill="#FF6699"/>
<path id="Vector_7" d="M77.92 31.58C77.9425 32.6651 77.8009 33.7473 77.5 34.79C77.2664 35.6037 76.9017 36.3738 76.42 37.07C76 37.6576 75.4785 38.1656 74.88 38.57C73.8342 39.2629 72.6439 39.7076 71.4 39.87C70.9025 39.9337 70.4016 39.9671 69.9 39.97C69.16 39.97 68.52 39.97 68 39.9C67.48 39.83 67 39.82 66.7 39.82H65.41C64.93 39.82 64.41 39.82 63.91 39.92C64.1212 39.5141 64.3017 39.0929 64.45 38.66C64.6117 38.1841 64.7485 37.7001 64.86 37.21C64.97 36.71 65.07 36.21 65.15 35.68C65.23 35.15 65.3 34.68 65.35 34.19C65.47 33.06 65.54 31.9 65.56 30.7C65.58 29.5 65.48 28.41 65.38 27.37C65.38 26.93 65.28 26.48 65.22 26.04C65.16 25.6 65.07 25.17 64.98 24.76C64.8982 24.3931 64.7913 24.0323 64.66 23.68C64.5515 23.4033 64.4033 23.1439 64.22 22.91C64.7492 23.0043 65.2834 23.0678 65.82 23.1C66.33 23.1 66.82 23.1 67.17 23.1C67.52 23.1 67.67 23.1 67.9 23.1H68.64H69.44C69.73 23.1 70.05 23.1 70.44 23.1C70.9915 23.1002 71.5425 23.1336 72.09 23.2C72.6677 23.2795 73.2346 23.4237 73.78 23.63C74.3502 23.857 74.8855 24.1634 75.37 24.54C75.888 24.952 76.3282 25.4532 76.67 26.02C77.0831 26.7457 77.3896 27.527 77.58 28.34C77.8184 29.4032 77.9325 30.4905 77.92 31.58ZM72.31 31.33C72.31 30.44 72.31 29.69 72.23 29.1C72.1973 28.614 72.1204 28.132 72 27.66C71.9385 27.376 71.808 27.1116 71.62 26.89C71.5527 26.8167 71.4708 26.7583 71.3795 26.7187C71.2881 26.679 71.1895 26.659 71.09 26.66C70.9943 26.6634 70.9007 26.6897 70.8172 26.7367C70.7337 26.7837 70.6626 26.8499 70.61 26.93C70.4338 27.1898 70.3114 27.4822 70.25 27.79C70.1373 28.2939 70.0605 28.8052 70.02 29.32C70.02 29.94 69.94 30.7 69.94 31.58C69.94 32.46 69.94 33.29 70.02 33.92C70.0501 34.4221 70.1237 34.9206 70.24 35.41C70.2944 35.6998 70.4141 35.9734 70.59 36.21C70.6523 36.2816 70.7291 36.3391 70.8153 36.3787C70.9015 36.4184 70.9951 36.4393 71.09 36.44C71.46 36.44 71.76 36.03 71.98 35.22C72.2437 33.941 72.3545 32.6352 72.31 31.33Z" fill="#FF6699"/>
<path id="Vector_8" d="M88.68 29.02C88.6825 29.5862 88.5982 30.1494 88.43 30.69C88.2688 31.2375 87.9732 31.736 87.57 32.14C87.0938 32.5922 86.5235 32.9337 85.9 33.14C85.0405 33.4123 84.1412 33.5374 83.24 33.51C83.2581 33.8348 83.3361 34.1535 83.47 34.45C83.5792 34.6831 83.7359 34.8909 83.93 35.06C84.0932 35.2082 84.2833 35.3236 84.49 35.4C84.6673 35.4723 84.8516 35.5259 85.04 35.56C85.2341 35.5996 85.4321 35.6164 85.63 35.61C86.0736 35.5718 86.5053 35.446 86.9 35.24C87.0651 35.1861 87.2229 35.1122 87.37 35.02C87.5293 34.9007 87.6707 34.7593 87.79 34.6C87.9203 34.4296 88.0248 34.2409 88.1 34.04C88.1858 33.8058 88.2331 33.5593 88.24 33.31C88.4251 33.7585 88.5657 34.2241 88.66 34.7C88.7367 35.0989 88.7768 35.5039 88.78 35.91C88.7917 36.54 88.6745 37.1657 88.4354 37.7487C88.1964 38.3317 87.8406 38.8596 87.39 39.3C86.9425 39.7348 86.412 40.0749 85.83 40.3C85.1915 40.5421 84.5128 40.6608 83.83 40.65C83.147 40.6528 82.4692 40.5307 81.83 40.29C81.1928 40.0351 80.6243 39.6344 80.17 39.12C79.6386 38.5451 79.2362 37.8632 78.99 37.12C78.6726 36.1526 78.5238 35.1378 78.55 34.12C78.549 32.9552 78.759 31.7999 79.17 30.71C79.4908 29.7941 79.9905 28.951 80.64 28.23C81.2416 27.5776 81.9743 27.0596 82.79 26.71C83.5985 26.3625 84.47 26.1855 85.35 26.19C85.7811 26.1887 86.2109 26.2391 86.63 26.34C87.019 26.4298 87.3862 26.5964 87.71 26.83C88.0228 27.0622 88.2735 27.3678 88.44 27.72C88.6219 28.1282 88.7041 28.5738 88.68 29.02ZM83.17 31.66C83.4247 31.65 83.6769 31.6063 83.92 31.53C84.2004 31.4522 84.4694 31.3379 84.72 31.19C84.9619 31.0551 85.1758 30.8752 85.35 30.66C85.523 30.4527 85.6154 30.1899 85.61 29.92C85.6125 29.8411 85.5977 29.7626 85.5666 29.69C85.5355 29.6175 85.4889 29.5526 85.43 29.5C85.2996 29.3884 85.1314 29.3312 84.96 29.34C84.7009 29.3333 84.4472 29.4144 84.24 29.57C84.0258 29.7244 83.8426 29.9177 83.7 30.14C83.5543 30.3803 83.4336 30.635 83.34 30.9C83.2591 31.1473 83.2022 31.4018 83.17 31.66Z" fill="#FF6699"/>
<path id="Vector_9" d="M94.73 39.66H94.28H93.73H93.02C92.52 39.66 91.95 39.66 91.3 39.72C90.65 39.78 89.96 39.84 89.2 39.96C89.3312 39.6757 89.4285 39.377 89.49 39.07C89.57 38.69 89.64 38.27 89.71 37.79C89.78 37.31 89.82 36.79 89.86 36.26C89.9 35.73 89.94 35.19 89.96 34.64C89.98 34.09 89.96 33.58 90.02 33.07C90.08 32.56 90.02 32.07 90.02 31.69C90.02 31.31 90.02 30.94 90.02 30.69V30.02C90.02 28.74 90.02 27.56 89.92 26.47C89.92 26.01 89.87 25.55 89.84 25.08C89.81 24.61 89.77 24.18 89.72 23.77C89.67 23.36 89.63 23.01 89.57 22.71C89.5302 22.473 89.4631 22.2415 89.37 22.02C89.9393 22.1221 90.5134 22.1955 91.09 22.24C91.61 22.24 92.09 22.3 92.51 22.3H93.25H93.81L94.29 22.24C94.22 22.58 94.16 23.02 94.1 23.55C94.04 24.08 94 24.67 93.96 25.32C93.92 25.97 93.88 26.69 93.86 27.44C93.84 28.19 93.86 28.98 93.86 29.78C93.86 30.58 93.86 31.62 93.86 32.55C93.86 33.48 93.94 34.38 94.01 35.26C94.08 36.14 94.17 36.94 94.28 37.7C94.3888 38.3621 94.5391 39.0168 94.73 39.66Z" fill="#FF6699"/>
<path id="Vector_10" d="M105.25 29.02C105.248 29.5858 105.163 30.1483 105 30.69C104.835 31.2382 104.536 31.7366 104.13 32.14C103.657 32.592 103.091 32.9336 102.47 33.14C101.607 33.4123 100.704 33.5374 99.8 33.51C99.8163 33.8362 99.8979 34.1559 100.04 34.45C100.132 34.6747 100.268 34.8788 100.44 35.0505C100.611 35.2222 100.815 35.358 101.04 35.45C101.217 35.5223 101.402 35.5759 101.59 35.61C101.788 35.6491 101.989 35.6658 102.19 35.66C102.633 35.6205 103.065 35.4948 103.46 35.29C103.629 35.2141 103.787 35.1167 103.93 35C104.085 34.8754 104.225 34.7346 104.35 34.58C104.477 34.4073 104.581 34.2191 104.66 34.02C104.741 33.7845 104.788 33.5387 104.8 33.29C104.985 33.7385 105.126 34.2041 105.22 34.68C105.297 35.0789 105.337 35.4839 105.34 35.89C105.344 36.5416 105.218 37.1875 104.97 37.79C104.738 38.3479 104.399 38.8543 103.97 39.28C103.528 39.7168 103 40.0573 102.42 40.28C101.781 40.5221 101.103 40.6408 100.42 40.63C99.737 40.6328 99.0592 40.5108 98.42 40.27C97.7741 40.0337 97.192 39.6502 96.72 39.15C96.1954 38.57 95.794 37.8896 95.54 37.15C95.2275 36.1814 95.0788 35.1675 95.1 34.15C95.079 32.9962 95.2652 31.848 95.65 30.76C95.9841 29.8243 96.5008 28.9643 97.17 28.23C97.7696 27.5752 98.5028 27.0569 99.32 26.71C100.128 26.3617 101 26.1846 101.88 26.19C102.308 26.1882 102.734 26.2385 103.15 26.34C103.539 26.4298 103.906 26.5964 104.23 26.83C104.546 27.0616 104.8 27.3672 104.97 27.72C105.161 28.1263 105.257 28.571 105.25 29.02ZM101.99 25.28L99.71 24.28C100.18 23.6 100.61 22.96 101.02 22.34L101.54 21.54C101.72 21.26 101.89 21 102.04 20.74C102.19 20.48 102.34 20.24 102.47 20.01C102.584 19.8227 102.688 19.629 102.78 19.43C103.059 19.6359 103.35 19.8261 103.65 20C103.99 20.21 104.32 20.4 104.65 20.58L105.79 21.21L101.99 25.28ZM99.76 31.63C100.011 31.6199 100.26 31.5761 100.5 31.5C100.781 31.4241 101.05 31.3096 101.3 31.16C101.547 31.028 101.764 30.8477 101.94 30.63C102.109 30.4206 102.201 30.1592 102.2 29.89C102.203 29.8101 102.187 29.7306 102.154 29.6578C102.121 29.585 102.072 29.5207 102.01 29.47C101.883 29.3591 101.718 29.3017 101.55 29.31C101.291 29.3034 101.037 29.3844 100.83 29.54C100.616 29.6944 100.433 29.8877 100.29 30.11C100.136 30.346 100.015 30.6016 99.93 30.87C99.8421 31.1256 99.7851 31.3908 99.76 31.66V31.63Z" fill="#FF6699"/>
<path id="Vector_11" d="M111.39 39.66H110.93H110.4H109.68C109.187 39.66 108.617 39.68 107.97 39.72C107.32 39.72 106.61 39.84 105.86 39.96C106.022 39.6112 106.147 39.2457 106.23 38.87C106.32 38.43 106.41 37.96 106.47 37.46C106.53 36.96 106.59 36.46 106.62 35.94C106.65 35.42 106.68 34.94 106.69 34.53C106.7 34.12 106.69 33.74 106.69 33.44C106.69 33.14 106.69 32.96 106.69 32.88C106.69 31.88 106.69 30.96 106.59 30.1L106.5 28.98C106.5 28.61 106.43 28.26 106.38 27.92C106.33 27.58 106.28 27.29 106.23 27.03C106.186 26.8153 106.116 26.607 106.02 26.41C106.64 26.51 107.22 26.59 107.74 26.62C108.26 26.65 108.74 26.68 109.18 26.68C109.45 26.68 109.7 26.68 109.91 26.68H110.47L110.95 26.63C110.792 27.45 110.679 28.2779 110.61 29.11C110.52 30.11 110.48 31.11 110.48 32.23C110.48 32.86 110.48 33.5 110.53 34.15C110.58 34.8 110.61 35.45 110.68 36.15C110.75 36.85 110.83 37.42 110.95 38.05C111.07 38.68 111.23 39.09 111.39 39.66ZM106.17 23.28C106.168 22.9366 106.236 22.5964 106.37 22.28C106.629 21.6609 107.121 21.1686 107.74 20.91C108.057 20.7785 108.397 20.7105 108.74 20.71C109.083 20.7084 109.424 20.7764 109.74 20.91C110.041 21.0424 110.316 21.2288 110.55 21.46C110.786 21.6944 110.973 21.9731 111.1 22.28C111.235 22.5962 111.304 22.9363 111.304 23.28C111.304 23.6237 111.235 23.9638 111.1 24.28C110.978 24.5896 110.79 24.8693 110.55 25.1C110.315 25.3383 110.035 25.5274 109.725 25.6562C109.416 25.7849 109.085 25.8508 108.75 25.85C108.406 25.8542 108.066 25.7861 107.75 25.65C107.443 25.5225 107.164 25.3356 106.93 25.1C106.696 24.864 106.51 24.5857 106.38 24.28C106.243 23.9643 106.172 23.6241 106.17 23.28Z" fill="#FF6699"/>
<path id="Vector_12" d="M121.17 25.8C121.11 26.14 121.07 26.48 121.04 26.8C121.01 27.12 121.04 27.46 121.04 27.8C121.04 28.14 121.04 28.46 121.04 28.8C121.04 29.14 121.11 29.46 121.17 29.8C120.777 29.6028 120.36 29.4582 119.93 29.37C119.47 29.28 118.99 29.21 118.51 29.16V30.16C118.51 31.02 118.51 31.9 118.56 32.78C118.61 33.66 118.64 34.52 118.71 35.35C118.78 36.18 118.87 36.96 118.98 37.7C119.071 38.3744 119.205 39.0424 119.38 39.7H118.93H118.39H117.68C117.18 39.7 116.61 39.7 115.96 39.76C115.31 39.82 114.61 39.88 113.85 40C114.118 38.4608 114.305 36.9087 114.41 35.35C114.52 33.75 114.57 32.17 114.57 30.64V29.17C114.05 29.17 113.57 29.26 113.03 29.34C112.545 29.4147 112.064 29.5148 111.59 29.64C111.627 29.5294 111.654 29.4156 111.67 29.3C111.67 29.17 111.67 29.03 111.73 28.88C111.79 28.73 111.73 28.59 111.73 28.46V28.11C111.73 27.72 111.73 27.34 111.73 26.96C111.73 26.58 111.66 26.19 111.61 25.8C112.033 25.968 112.472 26.0919 112.92 26.17C113.429 26.2707 113.943 26.3408 114.46 26.38C114.46 25.72 114.36 25.1 114.29 24.54C114.22 23.98 114.17 23.46 114.07 23.02C114.639 23.1221 115.213 23.1955 115.79 23.24C116.31 23.24 116.79 23.3 117.22 23.3H117.96H118.51C118.671 23.2937 118.832 23.2736 118.99 23.24C118.91 23.61 118.84 24.07 118.78 24.61C118.72 25.15 118.67 25.77 118.62 26.44C119.12 26.39 119.62 26.31 120.04 26.22C120.431 26.123 120.81 25.9821 121.17 25.8Z" fill="#FF6699"/>
<path id="Vector_13" d="M133.24 39.87L132.73 39.82C132.57 39.82 132.38 39.82 132.16 39.82H131.42C131.04 39.82 130.62 39.82 130.16 39.82C129.7 39.82 129.24 39.91 128.76 39.99V36.77C128.549 37.739 128.11 38.6438 127.48 39.41C127.236 39.7027 126.93 39.9378 126.584 40.0985C126.238 40.2593 125.861 40.3418 125.48 40.34C125.21 40.3377 124.942 40.3041 124.68 40.24C124.361 40.1741 124.054 40.0594 123.77 39.9C123.437 39.7005 123.131 39.4584 122.86 39.18C122.574 38.8299 122.341 38.4389 122.17 38.02C121.916 37.4578 121.731 36.8668 121.62 36.26C121.469 35.4489 121.399 34.6249 121.41 33.8C121.389 32.6906 121.52 31.5836 121.8 30.51C122.006 29.7129 122.344 28.9558 122.8 28.27C123.15 27.7492 123.619 27.3205 124.17 27.02C124.606 26.7689 125.097 26.6314 125.6 26.62C125.966 26.6132 126.331 26.6673 126.68 26.78C126.99 26.8784 127.283 27.0234 127.55 27.21C127.791 27.3705 128.009 27.5622 128.2 27.78C128.373 27.9796 128.524 28.1976 128.65 28.43C128.65 28.17 128.59 27.89 128.55 27.6C128.51 27.31 128.45 27 128.39 26.68C128.888 26.7823 129.393 26.8491 129.9 26.88C130.41 26.88 130.9 26.88 131.32 26.88C131.74 26.88 132.26 26.88 132.58 26.88H133.08C133 27.26 132.92 27.69 132.85 28.16C132.78 28.63 132.73 29.16 132.68 29.68C132.63 30.2 132.59 30.78 132.56 31.37C132.53 31.96 132.56 32.57 132.56 33.19C132.56 34.34 132.62 35.5 132.73 36.66C132.815 37.7418 132.985 38.8152 133.24 39.87ZM128.53 33.3V31.45C128.53 31.2367 128.53 31.0267 128.53 30.82C128.505 30.6167 128.451 30.418 128.37 30.23C128.291 30.0598 128.171 29.912 128.02 29.8C127.836 29.6802 127.619 29.6239 127.4 29.64C127.273 29.6362 127.147 29.6591 127.03 29.7074C126.913 29.7556 126.807 29.8281 126.72 29.92C126.522 30.1494 126.375 30.4188 126.29 30.71C126.167 31.093 126.09 31.489 126.06 31.89C126.06 32.34 125.99 32.89 125.99 33.37C125.993 33.6812 126.017 33.9918 126.06 34.3C126.094 34.591 126.165 34.8765 126.27 35.15C126.354 35.3876 126.491 35.6031 126.67 35.78C126.752 35.8591 126.849 35.9211 126.956 35.9623C127.062 36.0035 127.176 36.0231 127.29 36.02C127.415 36.0244 127.539 36.0006 127.653 35.9504C127.767 35.9002 127.869 35.8249 127.95 35.73C128.127 35.5224 128.26 35.2808 128.34 35.02C128.424 34.7291 128.48 34.4312 128.51 34.13C128.51 33.82 128.53 33.55 128.53 33.3Z" fill="#FF6699"/>
<path id="Vector_14" d="M143.17 25.8C143.108 26.1306 143.065 26.4645 143.04 26.8C143.04 27.13 143.04 27.46 143.04 27.8C143.04 28.14 143.04 28.46 143.04 28.8C143.064 29.1355 143.108 29.4694 143.17 29.8C142.777 29.6028 142.36 29.4582 141.93 29.37C141.46 29.28 140.99 29.21 140.51 29.16V30.16C140.51 31.02 140.51 31.9 140.56 32.78C140.61 33.66 140.64 34.52 140.71 35.35C140.78 36.18 140.87 36.96 140.98 37.7C141.071 38.3744 141.205 39.0424 141.38 39.7H140.92H140.39H139.68C139.18 39.7 138.61 39.7 137.96 39.76C137.31 39.82 136.61 39.88 135.85 40C136.11 38.51 136.29 37 136.41 35.35C136.53 33.7 136.57 32.17 136.57 30.64V29.17C136.05 29.17 135.57 29.26 135.03 29.34C134.545 29.4147 134.064 29.5148 133.59 29.64C133.627 29.5294 133.654 29.4155 133.67 29.3C133.698 29.1615 133.714 29.0211 133.72 28.88C133.72 28.74 133.72 28.59 133.72 28.46V28.11C133.72 27.72 133.72 27.34 133.72 26.96C133.72 26.58 133.65 26.19 133.6 25.8C134.022 25.9693 134.461 26.0933 134.91 26.17C135.415 26.2707 135.926 26.3409 136.44 26.38C136.44 25.72 136.34 25.1 136.28 24.54C136.22 23.98 136.15 23.46 136.07 23C136.636 23.1021 137.207 23.1755 137.78 23.22C138.313 23.26 138.793 23.28 139.22 23.28H139.95H140.51C140.671 23.2724 140.832 23.2523 140.99 23.22C140.91 23.59 140.84 24.05 140.78 24.59C140.72 25.13 140.67 25.75 140.61 26.42C141.09 26.3708 141.567 26.2973 142.04 26.2C142.43 26.1094 142.81 25.9752 143.17 25.8Z" fill="#FF6699"/>
<path id="Vector_15" d="M153.24 29.02C153.241 29.5853 153.16 30.1478 153 30.69C152.831 31.2364 152.533 31.7338 152.13 32.14C151.654 32.5922 151.084 32.9337 150.46 33.14C149.601 33.4123 148.701 33.5374 147.8 33.51C147.818 33.8348 147.896 34.1535 148.03 34.45C148.139 34.6831 148.296 34.8909 148.49 35.06C148.653 35.2082 148.843 35.3236 149.05 35.4C149.227 35.4723 149.412 35.5259 149.6 35.56C149.794 35.5991 149.992 35.6159 150.19 35.61C150.637 35.5705 151.071 35.4449 151.47 35.24C151.637 35.1618 151.795 35.0645 151.94 34.95C152.094 34.8278 152.232 34.6867 152.35 34.53C152.48 34.3596 152.585 34.1709 152.66 33.97C152.745 33.7351 152.795 33.4892 152.81 33.24C152.988 33.6903 153.125 34.1554 153.22 34.63C153.297 35.0289 153.337 35.4339 153.34 35.84C153.352 36.47 153.234 37.0957 152.995 37.6787C152.756 38.2617 152.401 38.7896 151.95 39.23C151.503 39.6648 150.972 40.0049 150.39 40.23C149.767 40.4659 149.106 40.5846 148.44 40.58C147.757 40.5828 147.079 40.4608 146.44 40.22C145.798 39.981 145.22 39.5978 144.75 39.1C144.222 38.5226 143.82 37.8414 143.57 37.1C143.253 36.1326 143.104 35.1178 143.13 34.1C143.109 32.9462 143.295 31.798 143.68 30.71C144.011 29.7944 144.517 28.952 145.17 28.23C145.772 27.5776 146.504 27.0596 147.32 26.71C148.129 26.3636 149 26.1866 149.88 26.19C150.311 26.1881 150.741 26.2385 151.16 26.34C151.549 26.4298 151.916 26.5964 152.24 26.83C152.553 27.0644 152.807 27.3693 152.98 27.72C153.165 28.1279 153.253 28.5725 153.24 29.02ZM147.75 31.63C148.005 31.6209 148.257 31.5771 148.5 31.5C148.78 31.4222 149.049 31.3079 149.3 31.16C149.543 31.0228 149.76 30.8433 149.94 30.63C150.106 30.4197 150.195 30.1581 150.19 29.89C150.193 29.8111 150.178 29.7326 150.147 29.66C150.116 29.5875 150.069 29.5226 150.01 29.47C149.88 29.3584 149.711 29.3012 149.54 29.31C149.284 29.3032 149.033 29.3844 148.83 29.54C148.614 29.6925 148.431 29.8862 148.29 30.11C148.136 30.346 148.015 30.6016 147.93 30.87C147.839 31.1253 147.779 31.3905 147.75 31.66V31.63Z" fill="#FF6699"/>
</g>
<defs>
<clipPath id="clip0_7632_642">
<rect width="153.35" height="60.03" fill="white"/>
</clipPath>
</defs>
</svg>
